<svg xmlns="http://www.w3.org/2000/svg" width="40" height="39" viewBox="0 0 40 39">
  <path id="Ausschluss_4" data-name="Ausschluss 4" d="M5702,174a20.32,20.32,0,0,1-7.785-1.532,19.967,19.967,0,0,1-6.356-4.179,19.4,19.4,0,0,1-4.286-6.2,19.113,19.113,0,0,1,0-15.181,19.4,19.4,0,0,1,4.286-6.2,19.967,19.967,0,0,1,6.356-4.179,20.541,20.541,0,0,1,15.57,0,19.969,19.969,0,0,1,6.357,4.179,19.409,19.409,0,0,1,4.287,6.2,19.113,19.113,0,0,1,0,15.181,19.407,19.407,0,0,1-4.287,6.2,19.968,19.968,0,0,1-6.357,4.179A20.317,20.317,0,0,1,5702,174Zm-5-27.185a1,1,0,0,0-1,1v15.367a1,1,0,0,0,1.535.844l12.131-7.683a1,1,0,0,0,0-1.69l-12.131-7.683A1,1,0,0,0,5697,146.815Z" transform="translate(-5682 -135)" fill="#e2e2e2"/>
</svg>
