<?xml version="1.0" encoding="UTF-8" standalone="no"?>
<svg
   xmlns:dc="http://purl.org/dc/elements/1.1/"
   xmlns:cc="http://creativecommons.org/ns#"
   xmlns:rdf="http://www.w3.org/1999/02/22-rdf-syntax-ns#"
   xmlns:svg="http://www.w3.org/2000/svg"
   xmlns="http://www.w3.org/2000/svg"
   xmlns:sodipodi="http://sodipodi.sourceforge.net/DTD/sodipodi-0.dtd"
   xmlns:inkscape="http://www.inkscape.org/namespaces/inkscape"
   inkscape:version="1.0 (4035a4f, 2020-05-01)"
   sodipodi:docname="heart-blue.svg"
   id="svg18"
   version="1.1"
   viewBox="0 0 12.47 10.46"
   height="10.46"
   width="12.47">
  <metadata
     id="metadata22">
    <rdf:RDF>
      <cc:Work
         rdf:about="">
        <dc:format>image/svg+xml</dc:format>
        <dc:type
           rdf:resource="http://purl.org/dc/dcmitype/StillImage" />
        <dc:title></dc:title>
      </cc:Work>
    </rdf:RDF>
  </metadata>
  <sodipodi:namedview
     inkscape:current-layer="g16"
     inkscape:window-maximized="0"
     inkscape:window-y="0"
     inkscape:window-x="1920"
     inkscape:cy="5.23"
     inkscape:cx="2.2469065"
     inkscape:zoom="57.170172"
     showgrid="false"
     id="namedview20"
     inkscape:window-height="900"
     inkscape:window-width="1440"
     inkscape:pageshadow="2"
     inkscape:pageopacity="0"
     guidetolerance="10"
     gridtolerance="10"
     objecttolerance="10"
     borderopacity="1"
     bordercolor="#666666"
     pagecolor="#ffffff" />
  <defs
     id="defs12">
    <style
       id="style10">.a{fill:#ee5a30;stroke:#ee5a30;}</style>
  </defs>
  <g
     style="fill:#ff8080"
     id="g16"
     transform="translate(0.5 -35.025)">
    <path
       style="fill:#80f0ff;stroke:#80f0ff;stroke-opacity:1;fill-opacity:1"
       id="path14"
       transform="translate(0 0)"
       d="M8.35,35.525a3.135,3.135,0,0,1,3.12,3.12c0,3.15-5.735,6.27-5.735,6.27S0,41.749,0,38.645a3.12,3.12,0,0,1,3.12-3.12h0a3.089,3.089,0,0,1,2.615,1.407A3.12,3.12,0,0,1,8.35,35.525Z"
       class="a" />
  </g>
  <path
     id="path24"
     d="M 6.0863212,10.369476 C 3.8974854,9.1183027 2.0356902,7.5935584 1.0174839,6.2182776 0.27012022,5.208821 -0.0646625,4.2269294 0.02449539,3.3059197 0.13448708,2.1696949 0.71753729,1.2081397 1.6788082,0.57765873 1.8504957,0.46505183 2.2220655,0.28288057 2.4224566,0.21306684 3.0691216,-0.01222333 3.8254999,-0.04891471 4.4945821,0.11254948 5.0902308,0.2562926 5.6746857,0.5789264 6.1278282,1.0141424 L 6.2393017,1.121206 6.3639653,1.001328 C 6.898942,0.48688757 7.5997261,0.15074865 8.3622545,0.0428262 8.6119185,0.00749069 9.0724669,0.00803751 9.3285172,0.04397346 10.96947,0.27427668 12.242859,1.578889 12.435464,3.2271001 c 0.03331,0.2850838 0.03356,0.4828403 9.44e-4,0.7611008 C 12.242459,5.6429507 10.732704,7.4855736 8.0681134,9.3196096 7.4289275,9.7595607 6.2973172,10.44793 6.2246811,10.440987 6.2159255,10.440149 6.1536633,10.40797 6.0863205,10.369476 Z M 6.521464,9.1527384 C 7.3911446,8.6275487 8.3405207,7.9447524 9.0686456,7.3207915 10.053153,6.4771261 10.78014,5.6178434 11.149801,4.8609128 11.374025,4.4017835 11.469863,4.0319975 11.471212,3.6207692 11.475284,2.3796831 10.611854,1.3217049 9.3692003,1.0451311 9.1400439,0.99412844 8.5808556,0.98962365 8.3479525,1.036904 7.9912432,1.1093175 7.604034,1.2756733 7.3157373,1.4803719 7.236245,1.5368137 7.0880875,1.6656413 6.9864981,1.7666555 6.8285039,1.9237556 6.7605053,2.0120085 6.5163257,2.3768739 L 6.2308609,2.8034301 6.1358972,2.6567401 C 5.7881813,2.1196244 5.6803495,1.9678965 5.5415592,1.8204602 5.156038,1.410923 4.706445,1.1608219 4.1338126,1.0373541 3.9230069,0.99190143 3.3325824,0.99241998 3.1214884,1.0382433 2.634235,1.1440139 2.2271547,1.3451719 1.8831271,1.6501775 1.3535135,2.1197181 1.0513844,2.7423642 0.99482855,3.4808361 0.9728919,3.7672719 1.0503211,4.2108728 1.1796971,4.5399692 1.4409817,5.2046046 1.9102174,5.8567543 2.6835098,6.6299871 3.5967936,7.5432003 4.6093416,8.3180063 6.095067,9.240525 6.16722,9.285326 6.2292232,9.322221 6.232852,9.322513 6.236482,9.3228051 6.366356,9.246406 6.521464,9.1527384 Z"
     style="font-variation-settings:normal;opacity:1;vector-effect:none;fill:#ffffff;fill-opacity:0;stroke-width:0.00124202;stroke-linecap:butt;stroke-linejoin:miter;stroke-miterlimit:4;stroke-dasharray:none;stroke-dashoffset:0;stroke-opacity:1;stop-color:#000000;stop-opacity:1" />
  <path
     id="path26"
     d="M 6.0863212,10.369476 C 3.8974854,9.1183027 2.0356902,7.5935584 1.0174839,6.2182776 0.27012022,5.208821 -0.0646625,4.2269294 0.02449539,3.3059197 0.13448708,2.1696949 0.71753729,1.2081397 1.6788082,0.57765873 1.8504957,0.46505183 2.2220655,0.28288057 2.4224566,0.21306684 3.0691216,-0.01222333 3.8254999,-0.04891471 4.4945821,0.11254948 5.0902308,0.2562926 5.6746857,0.5789264 6.1278282,1.0141424 L 6.2393017,1.121206 6.3639653,1.001328 C 6.898942,0.48688757 7.5997261,0.15074865 8.3622545,0.0428262 8.6119185,0.00749069 9.0724669,0.00803751 9.3285172,0.04397346 10.96947,0.27427668 12.242859,1.578889 12.435464,3.2271001 c 0.03331,0.2850838 0.03356,0.4828403 9.44e-4,0.7611008 C 12.242459,5.6429507 10.732704,7.4855736 8.0681134,9.3196096 7.4289275,9.7595607 6.2973172,10.44793 6.2246811,10.440987 6.2159255,10.440149 6.1536633,10.40797 6.0863205,10.369476 Z M 6.521464,9.1527384 C 7.3911446,8.6275487 8.3405207,7.9447524 9.0686456,7.3207915 10.053153,6.4771261 10.78014,5.6178434 11.149801,4.8609128 11.374025,4.4017835 11.469863,4.0319975 11.471212,3.6207692 11.475284,2.3796831 10.611854,1.3217049 9.3692003,1.0451311 9.1400439,0.99412844 8.5808556,0.98962365 8.3479525,1.036904 7.9912432,1.1093175 7.604034,1.2756733 7.3157373,1.4803719 7.236245,1.5368137 7.0880875,1.6656413 6.9864981,1.7666555 6.8285039,1.9237556 6.7605053,2.0120085 6.5163257,2.3768739 L 6.2308609,2.8034301 6.1358972,2.6567401 C 5.7881813,2.1196244 5.6803495,1.9678965 5.5415592,1.8204602 5.156038,1.410923 4.706445,1.1608219 4.1338126,1.0373541 3.9230069,0.99190143 3.3325824,0.99241998 3.1214884,1.0382433 2.634235,1.1440139 2.2271547,1.3451719 1.8831271,1.6501775 1.3535135,2.1197181 1.0513844,2.7423642 0.99482855,3.4808361 0.9728919,3.7672719 1.0503211,4.2108728 1.1796971,4.5399692 1.4409817,5.2046046 1.9102174,5.8567543 2.6835098,6.6299871 3.5967936,7.5432003 4.6093416,8.3180063 6.095067,9.240525 6.16722,9.285326 6.2292232,9.322221 6.232852,9.322513 6.236482,9.3228051 6.366356,9.246406 6.521464,9.1527384 Z"
     style="font-variation-settings:normal;opacity:1;vector-effect:none;fill:#ffffff;fill-opacity:0;stroke-width:0.00124202;stroke-linecap:butt;stroke-linejoin:miter;stroke-miterlimit:4;stroke-dasharray:none;stroke-dashoffset:0;stroke-opacity:1;stop-color:#000000;stop-opacity:1" />
  <path
     id="path28"
     d="M 6.0863212,10.369476 C 3.8974854,9.1183027 2.0356902,7.5935584 1.0174839,6.2182776 0.27012022,5.208821 -0.0646625,4.2269294 0.02449539,3.3059197 0.13448708,2.1696949 0.71753729,1.2081397 1.6788082,0.57765873 1.8504957,0.46505183 2.2220655,0.28288057 2.4224566,0.21306684 3.0691216,-0.01222333 3.8254999,-0.04891471 4.4945821,0.11254948 5.0902308,0.2562926 5.6746857,0.5789264 6.1278282,1.0141424 L 6.2393017,1.121206 6.3639653,1.001328 C 6.898942,0.48688757 7.5997261,0.15074865 8.3622545,0.0428262 8.6119185,0.00749069 9.0724669,0.00803751 9.3285172,0.04397346 10.96947,0.27427668 12.242859,1.578889 12.435464,3.2271001 c 0.03331,0.2850838 0.03356,0.4828403 9.44e-4,0.7611008 C 12.242459,5.6429507 10.732704,7.4855736 8.0681134,9.3196096 7.4289275,9.7595607 6.2973172,10.44793 6.2246811,10.440987 6.2159255,10.440149 6.1536633,10.40797 6.0863205,10.369476 Z M 6.521464,9.1527384 C 7.3911446,8.6275487 8.3405207,7.9447524 9.0686456,7.3207915 10.053153,6.4771261 10.78014,5.6178434 11.149801,4.8609128 11.374025,4.4017835 11.469863,4.0319975 11.471212,3.6207692 11.475284,2.3796831 10.611854,1.3217049 9.3692003,1.0451311 9.1400439,0.99412844 8.5808556,0.98962365 8.3479525,1.036904 7.9912432,1.1093175 7.604034,1.2756733 7.3157373,1.4803719 7.236245,1.5368137 7.0880875,1.6656413 6.9864981,1.7666555 6.8285039,1.9237556 6.7605053,2.0120085 6.5163257,2.3768739 L 6.2308609,2.8034301 6.1358972,2.6567401 C 5.7881813,2.1196244 5.6803495,1.9678965 5.5415592,1.8204602 5.156038,1.410923 4.706445,1.1608219 4.1338126,1.0373541 3.9230069,0.99190143 3.3325824,0.99241998 3.1214884,1.0382433 2.634235,1.1440139 2.2271547,1.3451719 1.8831271,1.6501775 1.3535135,2.1197181 1.0513844,2.7423642 0.99482855,3.4808361 0.9728919,3.7672719 1.0503211,4.2108728 1.1796971,4.5399692 1.4409817,5.2046046 1.9102174,5.8567543 2.6835098,6.6299871 3.5967936,7.5432003 4.6093416,8.3180063 6.095067,9.240525 6.16722,9.285326 6.2292232,9.322221 6.232852,9.322513 6.236482,9.3228051 6.366356,9.246406 6.521464,9.1527384 Z"
     style="font-variation-settings:normal;opacity:1;vector-effect:none;fill:#ffffff;fill-opacity:0;stroke-width:0.00124202;stroke-linecap:butt;stroke-linejoin:miter;stroke-miterlimit:4;stroke-dasharray:none;stroke-dashoffset:0;stroke-opacity:1;stop-color:#000000;stop-opacity:1" />
</svg>
